<svg id="DIVISIONS" viewBox="0 0 128 128" xmlns="http://www.w3.org/2000/svg" fill="rgba(255,255,255,0.55)"><path d="m4.52 122a2 2 0 0 0 2 2h23.05a2 2 0 0 0 2-2v-3.86c0-10.09-2.39-17.11-7.09-20.85a1.61 1.61 0 0 0 -.28-.17 10 10 0 1 0 -12.26 0 1.88 1.88 0 0 0 -.18.12c-3.3 2.59-7.24 8.31-7.24 20.85zm12.8-14.65.68-8.08h.3l.54 8.16-.75 2.76zm.72-24a6 6 0 1 1 -6 6 6 6 0 0 1 5.96-6.02zm-9.52 34.79c0-7.86 1.61-12.5 3.48-15.26l4.11 15.5a1.83 1.83 0 0 0 1.75 1.46 2.06 2.06 0 0 0 2.14-1.41s4.25-15.52 4.25-15.52c1.82 2.75 3.37 7.39 3.37 15.23v1.86h-19z"></path><path d="m49 49.13v4.52a2 2 0 0 0 2 2h27a2 2 0 0 0 2-2v-4.52c0-11.72-2.73-19.85-8.15-24.13a1.91 1.91 0 0 0 -.79-.37 11.34 11.34 0 1 0 -13 0 2 2 0 0 0 -.66.33c-3.84 3.04-8.4 9.61-8.4 24.17zm27 0v2.52h-23v-2.52c0-9.87 2.16-15.48 4.57-18.67l5 18.86a2 2 0 0 0 2.09 1.44 1.93 1.93 0 0 0 1.76-1.46l5.18-18.83c2.34 3.19 4.4 8.8 4.4 18.66zm-10.88-22.49.66 10-1.23 4.52-1.23-4.6.81-9.87c.13-.03.78-.04.99-.05zm-.61-18.64a7.34 7.34 0 1 1 -7.34 7.34 7.34 7.34 0 0 1 7.34-7.34z"></path><path d="m108 74.75a2 2 0 0 0 2 2 2 2 0 0 0 2-2v-10.75a2 2 0 0 0 -2-2h-43.48v-3.25a2 2 0 0 0 -4 0v3.25h-44.52a2 2 0 0 0 -2 2v10.75a2 2 0 0 0 4 0v-8.75h42.52v8.75a2 2 0 0 0 4 0v-8.75h41.53z"></path><path d="m50.93 122a2 2 0 0 0 2 2h23.07a2 2 0 0 0 2-2v-3.86c0-10.09-2.4-17.14-7.1-20.85a1.61 1.61 0 0 0 -.28-.17 10 10 0 1 0 -12.26 0 1.88 1.88 0 0 0 -.18.12c-3.3 2.59-7.25 8.31-7.25 20.85zm12.81-14.65.66-8.08h.3l.54 8.16-.75 2.76zm.71-24a6 6 0 1 1 -6 6 6 6 0 0 1 6-6.02zm-9.52 34.81c0-7.86 1.61-12.5 3.48-15.26l4.12 15.5a1.82 1.82 0 0 0 1.75 1.46 2.08 2.08 0 0 0 2.09-1.41s4.25-15.52 4.25-15.52c1.81 2.75 3.36 7.39 3.36 15.23v1.84h-19.05z"></path><path d="m96.43 122a2 2 0 0 0 2 2h23a2 2 0 0 0 2-2v-3.86c0-10.09-2.38-17.11-7.08-20.85a1.61 1.61 0 0 0 -.28-.17 10 10 0 1 0 -12.26 0 1.88 1.88 0 0 0 -.18.12c-3.3 2.59-7.25 8.31-7.25 20.85zm12.81-14.65.66-8.08h.3l.54 8.16-.75 2.76zm.71-24a6 6 0 1 1 -6 6 6 6 0 0 1 6.05-6.02zm-9.52 34.81c0-7.86 1.61-12.5 3.48-15.26l4.12 15.5a1.82 1.82 0 0 0 1.75 1.46 2.08 2.08 0 0 0 2.09-1.41s4.25-15.52 4.25-15.52c1.81 2.75 3.36 7.39 3.36 15.23v1.84h-19z"></path></svg>