<svg id="Capa_1" viewBox="0 0 496 496" xmlns="http://www.w3.org/2000/svg" fill="rgba(255,255,255,0.55)">
<rect x="224" y="448" width="64" height="16"></rect>
<g><g><path d="M400,80.408V40c0-22.056-17.944-40-40-40H152c-22.056,0-40,17.944-40,40v40H0v320h112v56c0,22.056,17.944,40,40,40h208 c22.056,0,40-17.944,40-40v-82.216l56,32V265.808c24.304-19.056,40-48.6,40-81.808C496,129.352,453.608,84.512,400,80.408z M128,40c0-13.232,10.768-24,24-24h208c13.232,0,24,10.768,24,24v8H128V40z M16,384V96h240v288H16z M384,456 c0,13.232-10.768,24-24,24H152c-13.232,0-24-10.768-24-24v-24h256V456z M384,416H128v-16h144V80H128V64h256v16.408 c-53.608,4.104-96,48.944-96,103.592c0,33.208,15.696,62.752,40,81.808v139.976l56-32V416z M440,378.216l-48-27.432l-48,27.432 V276.168c5.104,2.672,10.448,4.944,16,6.744V328h16v-41.36c5.232,0.816,10.544,1.36,16,1.36s10.768-0.552,16-1.36V328h16v-45.088 c5.552-1.8,10.896-4.072,16-6.744V378.216z M392,272c-48.52,0-88-39.48-88-88s39.48-88,88-88c48.52,0,88,39.48,88,88 S440.52,272,392,272z"></path></g></g><g><g><path d="M392,112c-39.696,0-72,32.304-72,72s32.304,72,72,72s72-32.304,72-72S431.696,112,392,112z M392,240 c-30.88,0-56-25.12-56-56s25.12-56,56-56s56,25.12,56,56S422.88,240,392,240z"></path></g></g><g><g><rect x="32" y="256" width="208" height="16"></rect></g></g><g><g><rect x="32" y="288" width="208" height="16"></rect></g></g><g><g><rect x="32" y="320" width="208" height="16"></rect></g></g><g><g><rect x="32" y="352" width="176" height="16"></rect></g></g><g><g><path d="M32,112v128h208V112H32z M224,224H48v-96h176V224z"></path></g></g><g><g><rect x="224" y="352" width="16" height="16"></rect></g></g></svg>