<!-- icon666.com - MILLIONS OF FREE VECTOR ICONS --><svg id="Capa_1" enable-background="new 0 0 512 512" viewBox="0 0 512 512" xmlns="http://www.w3.org/2000/svg"><g><g><g><g><g><path d="m296.8 376h-81.6l-34.801 105h151.201z" fill="#ffe6b3"></path></g></g></g></g><path d="m256 481h75.601l-34.801-105h-40.8z" fill="#ffca80"></path><path d="m121 466h270v30h-270z" fill="#fff7cc"></path><path d="m256 466h135v30h-135z" fill="#ffe6b3"></path><g><path d="m512 406h-512v-390h512z" fill="#575f64"></path></g><path d="m256 16h256v390h-256z" fill="#474f54"></path><path d="m30 46h452v330h-452z" fill="#fff7cc"></path><path d="m256 46h226v330h-226z" fill="#ffe6b3"></path><g id="Geology_Research_2_"><g><path d="m291.449 136.747-21.211-21.211 39.551-39.536h141.211v30h-128.789z" fill="#474f54"></path></g><g><path d="m361 136h90v30h-90z" fill="#474f54"></path></g><g><path d="m361 196h90v30h-90z" fill="#474f54"></path></g><g><path d="m361 256h90v30h-90z" fill="#474f54"></path></g></g><g><g id="Research_5_"><g><path d="m331 211-40.953 30-34.047-30-48.904-13.617-11.096-46.383-30-21.089 30-53.911c74.399 0 135 60.599 135 135z" fill="#824c19"></path></g></g><path d="m256 211-90 30 30-90c32.999 0 60 26.999 60 60z" fill="#e63950"></path><path d="m331 211c0 64.2-45 117.9-105 131.4l-60-41.4-60-60-30-90h-.901c22.202-44.401 68.101-75 120.901-75v135z" fill="#6aa9ff"></path><path d="m196 211v110.7l30 20.7c60-13.5 105-67.2 105-131.4z" fill="#2682ff"></path><path d="m226 301v41.4c-9.6 2.399-19.799 3.6-30 3.6-74.399 0-135-60.601-135-135 0-21.601 5.099-42.001 14.099-60h.901c32.999 0 60 26.999 60 60 0 32.999 27.001 60 60 60 16.5 0 30 13.5 30 30z" fill="#97de3d"></path><path d="m226 342.4v-41.4c0-16.5-13.5-30-30-30v75c10.201 0 20.4-1.201 30-3.6z" fill="#59c36a"></path></g></g></svg>